<svg width="24" height="24" viewBox="0 0 24 24" xmlns="http://www.w3.org/2000/svg"><title>2FBB2277-90BB-4ECD-AC86-AB8BACA6D4B4</title><g transform="translate(2 2)" fill="none" fill-rule="evenodd"><ellipse cx="4" cy="16" rx="2" ry="2"/><ellipse cx="10" cy="10" rx=".5" ry=".5"/><ellipse cx="4" cy="4" rx="2" ry="2"/><path d="M7.64 5.64C7.87 5.14 8 4.59 8 4c0-2.21-1.79-4-4-4S0 1.79 0 4s1.79 4 4 4c.59 0 1.14-.13 1.64-.36L8 10l-2.36 2.36C5.14 12.13 4.59 12 4 12c-2.21 0-4 1.79-4 4s1.79 4 4 4 4-1.79 4-4c0-.59-.13-1.14-.36-1.64L10 12l7 7h3v-1L7.64 5.64zM4 6a2 2 0 1 1-.001-3.999A2 2 0 0 1 4 6zm0 12a2 2 0 1 1-.001-3.999A2 2 0 0 1 4 18zm6-7.5c-.28 0-.5-.22-.5-.5s.22-.5.5-.5.5.22.5.5-.22.5-.5.5zM17 1l-6 6 2 2 7-7V1h-3z" fill="#000" fill-rule="nonzero"/></g></svg>